<svg width="31" height="31" viewBox="0 0 31 31" fill="none" xmlns="http://www.w3.org/2000/svg">
<path fill-rule="evenodd" clip-rule="evenodd" d="M3.2179 27.9827C3.1258 27.9827 2.94159 27.9827 2.84949 27.8874C2.48108 27.6969 2.29688 27.4111 2.29688 27.0301V10.836C2.29688 6.07307 5.98099 2.2627 10.5861 2.2627H19.7964C24.4015 2.2627 28.0857 6.07307 28.0857 10.836V14.6464C28.0857 19.4094 24.4015 23.2197 19.7964 23.2197H15.4676C11.2308 23.2197 7.08622 24.8391 3.86262 27.7922C3.67842 27.8874 3.40211 27.9827 3.2179 27.9827ZM4.29687 10.836V24.8638C7.56983 22.5028 11.4749 21.2197 15.4676 21.2197H19.7964C23.234 21.2197 26.0857 18.3689 26.0857 14.6464V10.836C26.0857 7.11358 23.234 4.2627 19.7964 4.2627H10.5861C7.14855 4.2627 4.29687 7.11358 4.29687 10.836ZM10.7509 14.197C11.5748 14.197 12.2427 13.5291 12.2427 12.7052C12.2427 11.8813 11.5748 11.2134 10.7509 11.2134C9.92697 11.2134 9.25907 11.8813 9.25907 12.7052C9.25907 13.5291 9.92697 14.197 10.7509 14.197ZM17.2148 12.7052C17.2148 13.5291 16.5469 14.197 15.723 14.197C14.8991 14.197 14.2312 13.5291 14.2312 12.7052C14.2312 11.8813 14.8991 11.2134 15.723 11.2134C16.5469 11.2134 17.2148 11.8813 17.2148 12.7052ZM20.6961 14.197C21.52 14.197 22.1879 13.5291 22.1879 12.7052C22.1879 11.8813 21.52 11.2134 20.6961 11.2134C19.8722 11.2134 19.2043 11.8813 19.2043 12.7052C19.2043 13.5291 19.8722 14.197 20.6961 14.197Z" fill="#868686"/>
</svg>
