<svg width="31" height="31" viewBox="0 0 31 31" fill="none" xmlns="http://www.w3.org/2000/svg">
<path d="M15.2285 3.00977C11.9962 3.00977 8.89625 4.2938 6.61065 6.5794C4.32505 8.865 3.04102 11.9649 3.04102 15.1973C3.04102 18.4296 4.32505 21.5295 6.61065 23.8151C8.89625 26.1007 11.9962 27.3848 15.2285 27.3848C17.7492 27.3848 20.3965 26.6254 22.3102 25.3539C22.4127 25.2857 22.5009 25.198 22.5695 25.0958C22.6382 24.9935 22.6861 24.8788 22.7104 24.7581C22.7347 24.6373 22.735 24.513 22.7113 24.3921C22.6875 24.2713 22.6402 24.1563 22.5721 24.0537C22.5039 23.9511 22.4162 23.863 22.3139 23.7943C22.2117 23.7257 22.097 23.6778 21.9762 23.6535C21.8555 23.6292 21.7311 23.6289 21.6103 23.6526C21.4894 23.6763 21.3744 23.7236 21.2719 23.7918C19.6816 24.8512 17.3625 25.5098 15.2285 25.5098C13.1889 25.5098 11.1951 24.9049 9.4992 23.7718C7.80332 22.6386 6.48154 21.0281 5.70101 19.1437C4.92048 17.2593 4.71626 15.1858 5.11417 13.1854C5.51208 11.185 6.49425 9.34746 7.93648 7.90523C9.37871 6.463 11.2162 5.48083 13.2166 5.08292C15.2171 4.68501 17.2906 4.88923 19.1749 5.66976C21.0593 6.45029 22.6699 7.77207 23.803 9.46795C24.9362 11.1638 25.541 13.1576 25.541 15.1973C25.541 18.2969 24.266 18.9473 23.1973 18.9473C22.1285 18.9473 20.8535 18.2969 20.8535 15.1973V10.5098C20.8535 10.2611 20.7547 10.0227 20.5789 9.84685C20.4031 9.67104 20.1647 9.57227 19.916 9.57227C19.6674 9.57227 19.4289 9.67104 19.2531 9.84685C19.0773 10.0227 18.9785 10.2611 18.9785 10.5098V11.009C18.1372 10.2547 17.0882 9.77124 15.9682 9.62165C14.8482 9.47205 13.7091 9.66323 12.6993 10.1703C11.6895 10.6773 10.8559 11.4768 10.3069 12.4644C9.75798 13.452 9.5192 14.5821 9.62171 15.7074C9.72421 16.8327 10.1632 17.901 10.8816 18.7732C11.6 19.6454 12.5644 20.2811 13.6491 20.5973C14.7339 20.9136 15.8888 20.8958 16.9634 20.5463C18.0379 20.1968 18.9823 19.5318 19.6734 18.6379C20.3766 20.0441 21.5895 20.8223 23.1973 20.8223C25.8387 20.8223 27.416 18.7199 27.416 15.1973C27.4126 11.966 26.1275 8.86803 23.8426 6.58317C21.5578 4.29831 18.4598 3.01318 15.2285 3.00977ZM15.2285 18.9473C14.4868 18.9473 13.7618 18.7273 13.1451 18.3153C12.5284 17.9032 12.0478 17.3176 11.764 16.6323C11.4801 15.9471 11.4059 15.1931 11.5506 14.4657C11.6953 13.7382 12.0524 13.0701 12.5769 12.5456C13.1013 12.0212 13.7695 11.664 14.4969 11.5193C15.2244 11.3746 15.9784 11.4489 16.6636 11.7327C17.3488 12.0165 17.9345 12.4972 18.3465 13.1139C18.7586 13.7306 18.9785 14.4556 18.9785 15.1973C18.9785 16.1918 18.5834 17.1457 17.8802 17.8489C17.1769 18.5522 16.2231 18.9473 15.2285 18.9473Z" fill="#868686"/>
</svg>
